<svg width="51" height="51" viewBox="0 0 51 51" fill="none" xmlns="http://www.w3.org/2000/svg">
<path d="M17.7291 8.6149C19.1912 7.15275 19.0136 7.33043 20.0863 6.34101C23.6696 3.03608 29.2508 3.321 32.9463 6.49992C34.6579 7.97225 36.3877 9.57819 39.2163 12.4068C42.0113 15.2017 43.6284 16.9398 45.1028 18.6479C48.3272 22.3835 48.5652 28.0388 45.2399 31.6848C44.2831 32.734 44.4922 32.5435 43.075 33.9608C41.6577 35.3781 41.8487 35.1683 40.7996 36.1252C37.1535 39.4505 31.4982 39.2125 27.7626 35.988C26.0545 34.5136 24.3164 32.8965 21.5215 30.1016C18.6929 27.273 17.087 25.5432 15.6146 23.8316C12.4357 20.1361 12.1508 14.5548 15.4557 10.9716C16.445 9.89897 16.2672 10.0768 17.7291 8.6149Z" fill="white" stroke="black" stroke-width="5.3625"/>
<path d="M5.42872 38.8847C10.7518 34.0866 18.6773 27.2583 18.6773 27.2583L24.3651 32.9461C24.3651 32.9461 17.5368 40.8716 12.7387 46.1947C10.7558 48.3945 7.39154 48.4202 5.29735 46.326C3.20317 44.2319 3.22885 40.8676 5.42872 38.8847Z" fill="#CDFF71"/>
<path d="M5.42872 38.8847C10.7518 34.0866 18.6773 27.2583 18.6773 27.2583L24.3651 32.9461C24.3651 32.9461 17.5368 40.8716 12.7387 46.1947C10.7558 48.3945 7.39154 48.4202 5.29735 46.326C3.20317 44.2319 3.22885 40.8676 5.42872 38.8847Z" stroke="black" stroke-width="5.3625" stroke-linecap="round" stroke-linejoin="round"/>
</svg>
